<?xml version="1.0" standalone="no"?>
<!DOCTYPE svg PUBLIC "-//W3C//DTD SVG 20010904//EN"
 "http://www.w3.org/TR/2001/REC-SVG-20010904/DTD/svg10.dtd">
<svg version="1.0" xmlns="http://www.w3.org/2000/svg"
 width="512.000000pt" height="512.000000pt" viewBox="0 0 512.000000 512.000000"
 preserveAspectRatio="xMidYMid meet">
<metadata>
Created by potrace 1.14, written by Peter Selinger 2001-2017
</metadata>
<g transform="translate(0.000000,512.000000) scale(0.100000,-0.100000)"
fill="#000000" stroke="none">
<path d="M1327 4492 c-97 -205 -156 -372 -211 -595 l-31 -128 -167 164 -166
163 -121 -121 -121 -121 258 -257 259 -258 0 -220 0 -220 -96 1 c-53 1 -169 1
-257 1 l-162 -1 -1 -170 -1 -170 282 -2 282 -3 9 -45 c29 -155 116 -453 161
-555 8 -16 28 -64 46 -105 34 -79 108 -220 145 -280 33 -53 48 -83 38 -78 -4
3 -26 13 -48 23 -81 35 -231 109 -255 125 -14 10 -52 34 -85 55 -77 49 -205
149 -274 214 -30 28 -55 51 -56 51 -1 0 -57 -54 -123 -120 l-121 -119 61 -56
c307 -284 638 -463 1085 -584 l42 -11 -40 -74 c-78 -145 -129 -346 -120 -474
1 -17 2040 -17 2042 1 2 17 2 15 -5 97 -9 109 -41 221 -97 337 -27 57 -49 106
-50 110 0 5 17 11 38 16 69 14 267 79 373 124 189 79 353 174 530 308 99 75
230 192 230 205 0 4 -52 61 -116 125 l-116 117 -26 -24 c-15 -14 -43 -39 -62
-57 -65 -60 -228 -179 -323 -236 -86 -51 -308 -157 -315 -150 -1 1 19 38 46
81 141 228 258 532 332 859 l27 120 280 3 280 2 2 170 2 170 -88 0 c-48 1
-165 1 -259 1 l-172 -1 2 220 1 220 257 257 258 258 -120 119 c-107 106 -121
117 -136 105 -10 -8 -85 -81 -168 -162 l-151 -148 -32 133 c-54 216 -112 380
-213 596 l-53 111 -51 -28 c-28 -16 -91 -50 -141 -76 -49 -26 -94 -51 -99 -55
-4 -5 12 -50 36 -102 181 -377 269 -770 271 -1203 0 -100 -8 -273 -17 -335 -2
-14 -6 -50 -10 -80 -4 -30 -9 -67 -12 -82 l-6 -28 -23 28 c-48 58 -176 255
-215 331 -79 158 -163 395 -184 521 -11 63 -16 95 -21 115 -6 28 -16 147 -19
235 l-3 75 -169 0 -169 0 0 -64 c-2 -385 140 -857 366 -1221 57 -92 197 -275
272 -356 l64 -69 -27 -75 c-15 -41 -40 -102 -54 -135 l-27 -59 -178 178 -179
179 -117 -116 c-64 -64 -116 -120 -114 -126 2 -6 95 -102 207 -214 111 -112
202 -206 202 -211 0 -13 -104 -147 -176 -224 l-30 -33 -80 39 c-43 22 -90 43
-104 47 -14 4 -29 11 -35 15 -10 8 -122 35 -192 46 -52 9 -226 9 -288 0 -114
-16 -275 -71 -357 -123 -21 -13 -42 -23 -47 -23 -5 0 -27 21 -49 48 -22 26
-50 58 -62 72 -40 45 -100 127 -100 136 0 5 92 101 205 214 113 113 205 209
205 214 0 5 -52 61 -116 124 l-115 115 -179 -178 -179 -179 -22 49 c-13 28
-37 88 -55 135 l-32 84 63 69 c318 343 548 820 614 1272 16 110 20 152 26 265
l6 106 -171 0 c-108 -1 -170 -4 -171 -11 0 -5 -2 -44 -4 -85 -10 -194 -44
-376 -107 -565 -22 -66 -65 -174 -97 -240 -52 -108 -175 -304 -236 -377 l-23
-27 -11 62 c-6 34 -13 87 -16 117 -3 30 -8 80 -12 110 -8 73 -7 389 1 465 15
130 18 153 33 245 40 251 140 561 240 747 18 34 33 66 33 72 0 5 -39 31 -87
57 -49 26 -115 62 -149 80 l-61 33 -56 -117z"/>
</g>
</svg>
